<svg xmlns="http://www.w3.org/2000/svg" width="542" height="123" viewBox="0 0 542 123">
<g><g><g>
<path fill="#fff" d="M42.367 100c-10.886 0-21.014-4.305-28.52-12.12C6.62 80.356 2.77 70.485 3.01 60.084 3.493 39.084 21.606 22 43.386 22c.381 0 .765.005 1.147.016 6.246.174 11.713 1.074 17 1.946l1.413.231A4.818 4.818 0 0 1 67 28.97v22.435c0 2.599-2.104 4.714-4.688 4.714a4.66 4.66 0 0 1-1.324-.193l-1.143-.34c-2.162-.644-5.78-1.723-6.813-1.723-4.16 0-7.543 3.316-7.543 7.391 0 4.078 3.384 7.393 7.543 7.393 1.076 0 4.752-1.034 6.949-1.651l1.074-.301c.41-.116.834-.173 1.258-.173 2.584 0 4.687 2.114 4.687 4.714v21.797a4.825 4.825 0 0 1-4.026 4.771l-.277.048C56.184 98.956 50.032 100 42.367 100"/></g>
<g><path fill="#ec3950" d="M44.146 20C20.34 20 .541 37.96.012 60.039c-.264 10.945 3.957 21.33 11.883 29.243C20.111 97.483 31.19 102 43.093 102c8.106 0 14.544-1.048 21.36-2.157l.295-.047c3.623-.59 6.252-3.591 6.252-7.14V71.115C71 67.192 67.705 64 63.652 64a7.62 7.62 0 0 0-1.962.258l-1.098.294c-1.935.524-5.54 1.495-6.56 1.549-2.844-.001-5.203-2.176-5.203-4.85 0-2.659 2.333-4.825 5.207-4.848 1.036.08 4.487 1.067 6.348 1.599l1.2.342c.674.19 1.37.286 2.067.286 4.052 0 7.349-3.192 7.349-7.114V29.344c0-3.568-2.647-6.573-6.296-7.144l-1.465-.231c-5.527-.872-11.243-1.775-17.844-1.952A47.237 47.237 0 0 0 44.146 20"/></g>
<g><path fill="#acacac" d="M43.515 25c.362 0 .728.005 1.094.015 6.73.185 12.56 1.212 18.365 2.146 1.168.19 2.026 1.17 2.026 2.32v22.426c0 1.265-1.06 2.228-2.277 2.228-.214 0-.434-.03-.653-.094-3.007-.873-7.165-2.16-8.767-2.16-5.598 0-10.137 4.42-10.137 9.873 0 5.453 4.54 9.873 10.137 9.873 1.615 0 5.783-1.211 8.8-2.039.208-.058.417-.085.621-.085 1.218 0 2.276.965 2.276 2.227v21.788c0 1.147-.853 2.126-2.013 2.32C56.344 96.947 50.162 98 42.478 98 21.488 98 4.53 81.192 5.01 60.642 5.475 40.692 23.128 25 43.515 25"/></g>
<g><path fill="#acacac" d="M87.02 100c-2.612 0-4.737-2.093-4.737-4.665V49.78h-8.546c-2.612 0-4.737-2.092-4.737-4.664v-18.45C69 24.093 71.125 22 73.737 22h58.526c2.612 0 4.737 2.093 4.737 4.665v18.45c0 2.572-2.125 4.664-4.737 4.664h-8.546v45.556c0 2.572-2.125 4.665-4.738 4.665z"/></g>
<g><path fill="#ec3950" d="M131.81 25c1.21 0 2.19.962 2.19 2.149v18.19c0 1.185-.98 2.147-2.19 2.147h-10.887v47.365c0 1.186-.981 2.149-2.19 2.149H87.267c-1.209 0-2.19-.963-2.19-2.149V47.486H74.191c-1.21 0-2.191-.962-2.191-2.148v-18.19c0-1.186.98-2.148 2.191-2.148h57.619m.042-5H74.15C70.207 20 67 23.17 67 27.067V45.3c0 3.896 3.207 7.066 7.149 7.066h5.948v42.567c0 3.897 3.206 7.067 7.147 7.067h31.512c3.94 0 7.147-3.17 7.147-7.067V52.366h5.95c3.942 0 7.147-3.17 7.147-7.066V27.067c0-3.897-3.205-7.067-7.148-7.067"/></g>
<g><path fill="#acacac" d="M177.5 100c-22.332 0-40.5-17.27-40.5-38.5S155.168 23 177.5 23 218 40.27 218 61.5 199.832 100 177.5 100m-.5-42c-.816 0-2 1.364-2 3.5s1.184 3.5 2 3.5c.816 0 2-1.364 2-3.5s-1.184-3.5-2-3.5"/></g><g><path fill="#ec3950" d="M177.5 21C153.512 21 134 39.168 134 61.5s19.513 40.5 43.5 40.5c23.985 0 43.5-18.168 43.5-40.5S201.485 21 177.5 21"/></g>
<g><path fill="#fff" d="M177 25c21.539 0 39 16.118 39 36 0 19.883-17.461 36-39 36s-39-16.117-39-36c0-19.882 17.461-36 39-36"/></g>
<g><path fill="#ec3950" d="M177 67c2.21 0 4-2.462 4-5.5 0-3.037-1.79-5.5-4-5.5-2.209 0-4 2.463-4 5.5 0 3.038 1.791 5.5 4 5.5"/></g>
<g><path fill="#fff" d="M356.082 100c-2.55 0-4.626-2.1-4.626-4.678v-13.64l-9.84 14.69A8.138 8.138 0 0 1 334.85 100h-25.225c-2.551 0-4.626-2.1-4.626-4.678V27.678c0-2.58 2.075-4.678 4.626-4.678h31.292c2.55 0 4.626 2.098 4.626 4.678v15.114l9.81-15.903c1.504-2.435 4.095-3.889 6.933-3.889h25.087c2.551 0 4.626 2.098 4.626 4.678v67.644c0 2.579-2.075 4.678-4.626 4.678z"/></g>
<g><path fill="#ec3950" d="M387.843 26c1.192 0 2.157.963 2.157 2.152v66.696c0 1.189-.965 2.152-2.157 2.152h-31.267a2.154 2.154 0 0 1-2.157-2.152V73.382l-14.339 21.12A5.7 5.7 0 0 1 335.362 97h-25.205A2.154 2.154 0 0 1 308 94.848V28.152c0-1.189.965-2.152 2.157-2.152h31.267c1.192 0 2.157.963 2.157 2.152v23.493l10.838-17.335 3.522-5.633A5.702 5.702 0 0 1 362.776 26h25.067m.059-5h-25.105c-3.698 0-7.075 1.87-9.031 5.003l-3.528 5.644-1.727 2.763v-6.324c0-3.908-3.184-7.086-7.099-7.086h-31.314c-3.914 0-7.098 3.178-7.098 7.086v66.828c0 3.908 3.184 7.086 7.098 7.086h25.243a10.64 10.64 0 0 0 8.814-4.667l5.334-7.86v5.441c0 3.908 3.184 7.086 7.099 7.086h31.314c3.914 0 7.098-3.178 7.098-7.086V28.086c0-3.908-3.184-7.086-7.098-7.086"/></g><g><path fill="#fff" d="M399.728 100c-2.606 0-4.728-2.1-4.728-4.678V27.678c0-2.58 2.122-4.678 4.728-4.678h51.544c2.606 0 4.728 2.098 4.728 4.678v19.4c0 2.58-2.122 4.677-4.728 4.677h-14.835v43.567c0 2.579-2.121 4.678-4.728 4.678z"/></g><g><path fill="#ec3950" d="M451.831 26A2.16 2.16 0 0 1 454 28.152v19.13a2.16 2.16 0 0 1-2.169 2.151h-17.06v45.415A2.16 2.16 0 0 1 432.603 97h-31.434A2.16 2.16 0 0 1 399 94.848V28.152A2.16 2.16 0 0 1 401.169 26h50.662m.034-5h-50.73C397.2 21 394 24.178 394 28.086v66.828c0 3.908 3.201 7.086 7.135 7.086h31.476c3.934 0 7.135-3.178 7.135-7.086V54.34h12.12c3.934 0 7.134-3.179 7.134-7.086V28.086c0-3.908-3.2-7.086-7.135-7.086"/></g>
<g><path fill="#fff" d="M463.683 100C461.1 100 459 97.92 459 95.361V27.64c0-2.558 2.1-4.639 4.683-4.639h36.358v.039L511.138 23C526.505 23 539 35.281 539 50.375c0 15.096-12.495 27.378-27.855 27.378-2.466 0-7.47-.792-11.104-1.6V95.36c0 2.558-2.101 4.639-4.682 4.639zm36.567-46c.313-.557.5-1.25.5-2s-.187-1.443-.5-2z"/></g>
<g><path fill="#ec3950" d="M537 50.533c0 13.55-11.353 24.533-25.355 24.533-2.992 0-10.937-1.392-13.602-2.314v22.135c0 1.167-.977 2.113-2.185 2.113h-31.673c-1.207 0-2.185-.946-2.185-2.113V28.115c0-1.168.978-2.115 2.185-2.115h33.858v.047L511.645 26C525.647 26 537 36.984 537 50.533zM498 58c3.313 0 6-2.464 6-5.5 0-3.039-2.687-5.5-6-5.5v11m13.647-37h-.02l-9.933.035-3.65-.035H464.18c-3.96 0-7.181 3.16-7.181 7.049v66.905c0 3.885 3.22 7.046 7.18 7.046h31.678c3.96 0 7.18-3.16 7.18-7.046V78.986c3.2.581 6.62 1.036 8.609 1.036 16.736 0 30.353-13.24 30.353-29.511C542 34.239 528.383 21 511.647 21"/></g>
<g><path fill="#ec3950" d="M287.051 120c-.893 0-1.797-.068-2.687-.201l-49.391-7.434a27.67 27.67 0 0 1-17.1-9.577l-7.099-8.46-.062-.09a42.636 42.636 0 0 1-6.525-34.437l9.171-39.026C215.818 10.31 225.078 3 235.878 3c1.37 0 2.752.122 4.109.363l40.34 7.2a32.084 32.084 0 0 1 22.59 15.036l6.347 10.412c5.327 8.743 7.02 19.049 4.76 29.023l-9.605 41.23c-1.884 8.088-9.025 13.736-17.368 13.736"/></g>
<g><path fill="#ec3950" d="M236.387 5c1.212 0 2.438.107 3.67.329l40.332 7.26a29.69 29.69 0 0 1 20.898 14l6.347 10.5a37.26 37.26 0 0 1 4.46 27.428l-9.599 41.561c-1.633 7.066-7.91 11.922-14.943 11.922-.765 0-1.538-.056-2.315-.174l-49.382-7.498a25.142 25.142 0 0 1-15.56-8.788l-7.028-8.449a40.76 40.76 0 0 1-6.147-32.721L216.294 21C218.51 11.491 226.964 5 236.387 5m-.012-5h-.002c-11.963 0-22.22 8.166-24.945 19.856l-9.177 39.378a45.787 45.787 0 0 0 6.91 36.713l.125.178.138.167 7.031 8.453a30.094 30.094 0 0 0 18.641 10.525l49.404 7.5c1.011.153 2.04.23 3.059.23 9.508 0 17.648-6.49 19.794-15.786l9.605-41.572c2.408-10.721.61-21.771-5.054-31.142l-6.35-10.503c-5.323-8.807-14.192-14.76-24.341-16.338L240.924.406a25.76 25.76 0 0 0-4.55-.406"/></g><g><path fill="#fff" d="M237 10.123C229.195 9.061 221.857 14.96 220 24c3.251-7.749 9.707-12.991 17-13.877"/></g><g><path fill-opacity=".09" d="M290.923 105.48l-6.17-8.986c-3.399-4.949-4.56-11.145-3.192-17.025l10.893-46.802c.93-4 6.052-5 8.364-1.634l3.66 5.33c5.907 8.599 7.925 19.37 5.547 29.589l-8.729 37.5c-1.154 4.96-7.507 6.202-10.373 2.028"/></g><g><path fill="#fff" d="M256.883 49.427c-.724 4.348-4.617 7.232-8.695 6.443-4.077-.79-6.796-4.952-6.071-9.3.724-4.344 4.617-7.23 8.695-6.44 4.077.79 6.796 4.951 6.071 9.297"/></g><g><path fill="#fff" d="M246.883 26.84a7.468 7.468 0 0 1-8.694 6.038c-4.078-.74-6.796-4.643-6.072-8.718a7.467 7.467 0 0 1 8.695-6.038c4.078.74 6.795 4.642 6.071 8.717"/></g><g><path fill="#fff" d="M232.082 22.722c.674-3.996 4.147-6.712 7.918-6.327a5.575 5.575 0 0 0-.965-.292c-3.263-.623-6.378 1.655-6.958 5.09-.104.615-.092 1.217-.028 1.807.012-.092.017-.186.033-.278"/></g><g><path fill="#fff" d="M260.082 28.722c.674-3.997 4.148-6.71 7.918-6.327a5.679 5.679 0 0 0-.964-.292c-3.263-.623-6.38 1.656-6.959 5.09-.104.615-.092 1.218-.028 1.807.012-.092.017-.185.033-.278"/></g><g><path fill="#fff" d="M223.082 60.722c.674-3.996 4.147-6.712 7.918-6.327a5.607 5.607 0 0 0-.965-.292c-3.263-.623-6.379 1.655-6.958 5.09-.104.615-.092 1.217-.028 1.807.012-.092.017-.186.033-.278"/></g><g><path fill="#fff" d="M250.092 65.722c.759-3.996 4.666-6.712 8.908-6.327a6.852 6.852 0 0 0-1.085-.292c-3.67-.623-7.177 1.655-7.828 5.09-.117.615-.104 1.217-.032 1.807.014-.092.02-.186.037-.278"/></g><g><path fill="#fff" d="M242.082 44.722c.674-3.996 4.147-6.71 7.918-6.327a5.813 5.813 0 0 0-.965-.292c-3.263-.623-6.378 1.656-6.958 5.09-.104.615-.092 1.217-.028 1.807.012-.092.017-.186.033-.278"/></g><g><path fill="#fff" d="M238.883 64.838a7.467 7.467 0 0 1-8.694 6.04c-4.078-.74-6.796-4.643-6.072-8.718a7.467 7.467 0 0 1 8.695-6.038c4.078.74 6.795 4.642 6.071 8.716"/></g><g><path fill="#fff" d="M274.883 31.838a7.467 7.467 0 0 1-8.695 6.04c-4.077-.74-6.796-4.643-6.071-8.718a7.467 7.467 0 0 1 8.695-6.038c4.077.738 6.796 4.642 6.071 8.716"/></g><g><path fill="#fff" d="M245.98 104.507c-.283 1.85-3.413 2.901-6.991 2.343-3.578-.556-6.25-2.507-5.969-4.357.282-1.85 3.412-2.901 6.99-2.343 3.579.554 6.252 2.505 5.97 4.357"/></g><g><path fill="#fff" d="M258.98 99.506c-.283 1.852-3.412 2.902-6.991 2.345-3.578-.557-6.25-2.508-5.969-4.358.282-1.851 3.412-2.9 6.99-2.344 3.579.556 6.252 2.507 5.97 4.357"/></g><g><path fill="#fff" d="M270.981 95.507c-.26 1.851-3.149 2.9-6.451 2.344-3.304-.556-5.771-2.507-5.511-4.359.26-1.85 3.15-2.9 6.453-2.343 3.302.557 5.77 2.508 5.51 4.358"/></g><g><path fill="#fff" d="M297.548 77.993c-3.301.204-6.22-3.878-6.523-9.121-.301-5.24 2.127-9.659 5.427-9.865 3.3-.204 6.22 3.878 6.523 9.121.301 5.242-2.127 9.659-5.427 9.865"/></g><g><path fill="#fff" d="M266.883 69.839c-.724 4.075-4.617 6.778-8.695 6.04-4.077-.741-6.796-4.644-6.071-8.719a7.467 7.467 0 0 1 8.695-6.038c4.077.74 6.796 4.643 6.071 8.717"/></g><g><path fill="#fff" d="M219.58 79.491C214.208 78.342 210.152 72.767 209 66c.107 7.593 4.341 14.27 10.089 15.184l29.6 4.711c.441.07.877.1 1.311.105z"/></g></g></g></svg>